<?xml version="1.0" encoding="UTF-8"?>
<svg width="1920px" height="1080px" viewBox="0 0 1920 1080" version="1.1" xmlns="http://www.w3.org/2000/svg" xmlns:xlink="http://www.w3.org/1999/xlink">
    <!-- Generator: Sketch 57.1 (83088) - https://sketch.com -->
    <title>背景线</title>
    <desc>Created with Sketch.</desc>
    <defs>
        <rect id="path-1" x="0" y="0" width="1921" height="1082"></rect>
    </defs>
    <g id="页面-1" stroke="none" stroke-width="1" fill="none" fill-rule="evenodd">
        <g id="认识毒品">
            <g id="背景线">
                <mask id="mask-2" fill="white">
                    <use xlink:href="#path-1"></use>
                </mask>
                <use id="蒙版" fill="#BFEBFE" xlink:href="#path-1"></use>
                <g opacity="0.479120164" mask="url(#mask-2)">
                    <g transform="translate(1393.500000, 1049.500000) rotate(-315.000000) translate(-1393.500000, -1049.500000) translate(-686.000000, -1317.000000)">
                        <g id="编组" transform="translate(92.000000, 1210.000000)">
                            <rect id="矩形" stroke="#B5E2F2" stroke-width="4" x="0" y="0" width="1549" height="3523"></rect>
                            <rect id="矩形" stroke="#B5E2F2" stroke-width="4" x="0" y="0" width="775" height="3523"></rect>
                            <rect id="矩形" stroke="#B5E2F2" stroke-width="4" transform="translate(968.500000, 1761.500000) scale(-1, 1) translate(-968.500000, -1761.500000) " x="775" y="0" width="387" height="3523"></rect>
                            <rect id="矩形" stroke="#B5E2F2" stroke-width="4" transform="translate(1113.500000, 1761.500000) scale(-1, 1) translate(-1113.500000, -1761.500000) " x="1065" y="0" width="97" height="3523"></rect>
                            <rect id="矩形" stroke="#B5E2F2" stroke-width="4" x="1017" y="0" width="48" height="3523"></rect>
                            <rect id="矩形" stroke="#B5E2F2" stroke-width="4" x="1162" y="0" width="194" height="3523"></rect>
                            <rect id="矩形" stroke="#B5E2F2" stroke-width="4" x="1307" y="0" width="49" height="3523"></rect>
                            <rect id="矩形" stroke="#B5E2F2" stroke-width="4" x="1162" y="0" width="97" height="3523"></rect>
                            <rect id="矩形" stroke="#B5E2F2" stroke-width="4" transform="translate(1138.000000, 1761.500000) scale(-1, 1) translate(-1138.000000, -1761.500000) " x="1114" y="0" width="48" height="3523"></rect>
                            <rect id="矩形" stroke="#B5E2F2" stroke-width="4" transform="translate(1356.000000, 1761.500000) scale(-1, 1) translate(-1356.000000, -1761.500000) " x="1259" y="0" width="194" height="3523"></rect>
                            <rect id="矩形" stroke="#B5E2F2" stroke-width="4" transform="translate(1428.000000, 1761.500000) scale(-1, 1) translate(-1428.000000, -1761.500000) " x="1403" y="0" width="50" height="3523"></rect>
                            <rect id="矩形" stroke="#B5E2F2" stroke-width="4" x="1453" y="0" width="50" height="3523"></rect>
                            <rect id="矩形" stroke="#B5E2F2" stroke-width="4" x="1211" y="0" width="48" height="3523"></rect>
                            <rect id="矩形" stroke="#B5E2F2" stroke-width="4" transform="translate(872.000000, 1761.500000) scale(-1, 1) translate(-872.000000, -1761.500000) " x="775" y="0" width="194" height="3523"></rect>
                            <rect id="矩形" stroke="#B5E2F2" stroke-width="4" transform="translate(944.500000, 1761.500000) scale(-1, 1) translate(-944.500000, -1761.500000) " x="920" y="0" width="49" height="3523"></rect>
                            <rect id="矩形" stroke="#B5E2F2" stroke-width="4" transform="translate(823.500000, 1761.500000) scale(-1, 1) translate(-823.500000, -1761.500000) " x="775" y="0" width="97" height="3523"></rect>
                            <rect id="矩形" stroke="#B5E2F2" stroke-width="4" transform="translate(847.500000, 1761.500000) scale(-1, 1) translate(-847.500000, -1761.500000) " x="823" y="0" width="49" height="3523"></rect>
                            <rect id="矩形" stroke="#B5E2F2" stroke-width="4" x="727" y="0" width="48" height="3523"></rect>
                            <rect id="矩形" stroke="#B5E2F2" stroke-width="4" x="0" y="0" width="387" height="3523"></rect>
                            <rect id="矩形" stroke="#B5E2F2" stroke-width="4" transform="translate(484.000000, 1761.500000) scale(-1, 1) translate(-484.000000, -1761.500000) " x="387" y="0" width="194" height="3523"></rect>
                            <rect id="矩形" stroke="#B5E2F2" stroke-width="4" x="581" y="0" width="97" height="3523"></rect>
                            <rect id="矩形" stroke="#B5E2F2" stroke-width="4" x="629" y="0" width="49" height="3523"></rect>
                            <rect id="矩形" stroke="#B5E2F2" stroke-width="4" transform="translate(557.000000, 1761.500000) scale(-1, 1) translate(-557.000000, -1761.500000) " x="533" y="0" width="48" height="3523"></rect>
                            <rect id="矩形" stroke="#B5E2F2" stroke-width="4" transform="translate(436.500000, 1761.500000) scale(-1, 1) translate(-436.500000, -1761.500000) " x="388" y="0" width="97" height="3523"></rect>
                            <rect id="矩形" stroke="#B5E2F2" stroke-width="4" transform="translate(460.500000, 1761.500000) scale(-1, 1) translate(-460.500000, -1761.500000) " x="436" y="0" width="49" height="3523"></rect>
                            <rect id="矩形" stroke="#B5E2F2" stroke-width="4" x="339" y="0" width="48" height="3523"></rect>
                            <rect id="矩形" stroke="#B5E2F2" stroke-width="4" x="0" y="0" width="194" height="3523"></rect>
                            <rect id="矩形" stroke="#B5E2F2" stroke-width="4" transform="translate(242.500000, 1761.500000) scale(-1, 1) translate(-242.500000, -1761.500000) " x="194" y="0" width="97" height="3523"></rect>
                            <rect id="矩形" stroke="#B5E2F2" stroke-width="4" transform="translate(266.500000, 1761.500000) scale(-1, 1) translate(-266.500000, -1761.500000) " x="242" y="0" width="49" height="3523"></rect>
                            <rect id="矩形" stroke="#B5E2F2" stroke-width="4" x="0" y="0" width="97" height="3523"></rect>
                            <rect id="矩形" stroke="#B5E2F2" stroke-width="4" transform="translate(121.000000, 1761.500000) scale(-1, 1) translate(-121.000000, -1761.500000) " x="97" y="0" width="48" height="3523"></rect>
                            <rect id="矩形" stroke="#B5E2F2" stroke-width="4" x="0" y="0" width="49" height="3523"></rect>
                        </g>
                        <g id="编组" transform="translate(1545.000000, 1210.000000)">
                            <rect id="矩形" stroke="#B5E2F2" stroke-width="4" x="0" y="0" width="1549" height="3499"></rect>
                            <rect id="矩形" stroke="#B5E2F2" stroke-width="4" x="0" y="0" width="775" height="3499"></rect>
                            <rect id="矩形" stroke="#B5E2F2" stroke-width="4" transform="translate(968.500000, 1749.500000) scale(-1, 1) translate(-968.500000, -1749.500000) " x="775" y="0" width="387" height="3499"></rect>
                            <rect id="矩形" stroke="#B5E2F2" stroke-width="4" transform="translate(1113.500000, 1749.500000) scale(-1, 1) translate(-1113.500000, -1749.500000) " x="1065" y="0" width="97" height="3499"></rect>
                            <rect id="矩形" stroke="#B5E2F2" stroke-width="4" x="1017" y="0" width="48" height="3499"></rect>
                            <rect id="矩形" stroke="#B5E2F2" stroke-width="4" x="1162" y="0" width="194" height="3499"></rect>
                            <rect id="矩形" stroke="#B5E2F2" stroke-width="4" x="1307" y="0" width="49" height="3499"></rect>
                            <rect id="矩形" stroke="#B5E2F2" stroke-width="4" x="1162" y="0" width="97" height="3499"></rect>
                            <rect id="矩形" stroke="#B5E2F2" stroke-width="4" transform="translate(1138.000000, 1749.500000) scale(-1, 1) translate(-1138.000000, -1749.500000) " x="1114" y="0" width="48" height="3499"></rect>
                            <rect id="矩形" stroke="#B5E2F2" stroke-width="4" transform="translate(1356.000000, 1749.500000) scale(-1, 1) translate(-1356.000000, -1749.500000) " x="1259" y="0" width="194" height="3499"></rect>
                            <rect id="矩形" stroke="#B5E2F2" stroke-width="4" transform="translate(1428.000000, 1749.500000) scale(-1, 1) translate(-1428.000000, -1749.500000) " x="1403" y="0" width="50" height="3499"></rect>
                            <rect id="矩形" stroke="#B5E2F2" stroke-width="4" x="1453" y="0" width="50" height="3499"></rect>
                            <rect id="矩形" stroke="#B5E2F2" stroke-width="4" x="1211" y="0" width="48" height="3499"></rect>
                            <rect id="矩形" stroke="#B5E2F2" stroke-width="4" transform="translate(872.000000, 1749.500000) scale(-1, 1) translate(-872.000000, -1749.500000) " x="775" y="0" width="194" height="3499"></rect>
                            <rect id="矩形" stroke="#B5E2F2" stroke-width="4" transform="translate(944.500000, 1749.500000) scale(-1, 1) translate(-944.500000, -1749.500000) " x="920" y="0" width="49" height="3499"></rect>
                            <rect id="矩形" stroke="#B5E2F2" stroke-width="4" transform="translate(823.500000, 1749.500000) scale(-1, 1) translate(-823.500000, -1749.500000) " x="775" y="0" width="97" height="3499"></rect>
                            <rect id="矩形" stroke="#B5E2F2" stroke-width="4" transform="translate(847.500000, 1749.500000) scale(-1, 1) translate(-847.500000, -1749.500000) " x="823" y="0" width="49" height="3499"></rect>
                            <rect id="矩形" stroke="#B5E2F2" stroke-width="4" x="727" y="0" width="48" height="3499"></rect>
                            <rect id="矩形" stroke="#B5E2F2" stroke-width="4" x="0" y="0" width="387" height="3499"></rect>
                            <rect id="矩形" stroke="#B5E2F2" stroke-width="4" transform="translate(484.000000, 1749.500000) scale(-1, 1) translate(-484.000000, -1749.500000) " x="387" y="0" width="194" height="3499"></rect>
                            <rect id="矩形" stroke="#B5E2F2" stroke-width="4" x="581" y="0" width="97" height="3499"></rect>
                            <rect id="矩形" stroke="#B5E2F2" stroke-width="4" x="629" y="0" width="49" height="3499"></rect>
                            <rect id="矩形" stroke="#B5E2F2" stroke-width="4" transform="translate(557.000000, 1749.500000) scale(-1, 1) translate(-557.000000, -1749.500000) " x="533" y="0" width="48" height="3499"></rect>
                            <rect id="矩形" stroke="#B5E2F2" stroke-width="4" transform="translate(436.500000, 1749.500000) scale(-1, 1) translate(-436.500000, -1749.500000) " x="388" y="0" width="97" height="3499"></rect>
                            <rect id="矩形" stroke="#B5E2F2" stroke-width="4" transform="translate(460.500000, 1749.500000) scale(-1, 1) translate(-460.500000, -1749.500000) " x="436" y="0" width="49" height="3499"></rect>
                            <rect id="矩形" stroke="#B5E2F2" stroke-width="4" x="339" y="0" width="48" height="3499"></rect>
                            <rect id="矩形" stroke="#B5E2F2" stroke-width="4" x="0" y="0" width="194" height="3499"></rect>
                            <rect id="矩形" stroke="#B5E2F2" stroke-width="4" transform="translate(242.500000, 1749.500000) scale(-1, 1) translate(-242.500000, -1749.500000) " x="194" y="0" width="97" height="3499"></rect>
                            <rect id="矩形" stroke="#B5E2F2" stroke-width="4" transform="translate(266.500000, 1749.500000) scale(-1, 1) translate(-266.500000, -1749.500000) " x="242" y="0" width="49" height="3499"></rect>
                            <rect id="矩形" stroke="#B5E2F2" stroke-width="4" x="0" y="0" width="97" height="3499"></rect>
                            <rect id="矩形" stroke="#B5E2F2" stroke-width="4" transform="translate(121.000000, 1749.500000) scale(-1, 1) translate(-121.000000, -1749.500000) " x="97" y="0" width="48" height="3499"></rect>
                            <rect id="矩形" stroke="#B5E2F2" stroke-width="4" x="0" y="0" width="49" height="3499"></rect>
                        </g>
                        <g id="编组" transform="translate(2610.000000, 1210.000000)">
                            <rect id="矩形" stroke="#B5E2F2" stroke-width="4" x="0" y="0" width="1549" height="3499"></rect>
                            <rect id="矩形" stroke="#B5E2F2" stroke-width="4" x="0" y="0" width="775" height="3499"></rect>
                            <rect id="矩形" stroke="#B5E2F2" stroke-width="4" x="0" y="0" width="387" height="3499"></rect>
                            <rect id="矩形" stroke="#B5E2F2" stroke-width="4" transform="translate(484.000000, 1749.500000) scale(-1, 1) translate(-484.000000, -1749.500000) " x="387" y="0" width="194" height="3499"></rect>
                            <rect id="矩形" stroke="#B5E2F2" stroke-width="4" x="581" y="0" width="97" height="3499"></rect>
                            <rect id="矩形" stroke="#B5E2F2" stroke-width="4" x="629" y="0" width="49" height="3499"></rect>
                            <rect id="矩形" stroke="#B5E2F2" stroke-width="4" transform="translate(557.000000, 1749.500000) scale(-1, 1) translate(-557.000000, -1749.500000) " x="533" y="0" width="48" height="3499"></rect>
                            <rect id="矩形" stroke="#B5E2F2" stroke-width="4" transform="translate(436.500000, 1749.500000) scale(-1, 1) translate(-436.500000, -1749.500000) " x="388" y="0" width="97" height="3499"></rect>
                            <rect id="矩形" stroke="#B5E2F2" stroke-width="4" transform="translate(460.500000, 1749.500000) scale(-1, 1) translate(-460.500000, -1749.500000) " x="436" y="0" width="49" height="3499"></rect>
                            <rect id="矩形" stroke="#B5E2F2" stroke-width="4" x="339" y="0" width="48" height="3499"></rect>
                            <rect id="矩形" stroke="#B5E2F2" stroke-width="4" x="0" y="0" width="194" height="3499"></rect>
                            <rect id="矩形" stroke="#B5E2F2" stroke-width="4" transform="translate(242.500000, 1749.500000) scale(-1, 1) translate(-242.500000, -1749.500000) " x="194" y="0" width="97" height="3499"></rect>
                            <rect id="矩形" stroke="#B5E2F2" stroke-width="4" transform="translate(266.500000, 1749.500000) scale(-1, 1) translate(-266.500000, -1749.500000) " x="242" y="0" width="49" height="3499"></rect>
                            <rect id="矩形" stroke="#B5E2F2" stroke-width="4" x="0" y="0" width="97" height="3499"></rect>
                            <rect id="矩形" stroke="#B5E2F2" stroke-width="4" transform="translate(121.000000, 1749.500000) scale(-1, 1) translate(-121.000000, -1749.500000) " x="97" y="0" width="48" height="3499"></rect>
                            <rect id="矩形" stroke="#B5E2F2" stroke-width="4" x="0" y="0" width="49" height="3499"></rect>
                        </g>
                        <g id="编组" transform="translate(1955.500000, 2324.500000) rotate(-90.000000) translate(-1955.500000, -2324.500000) translate(1181.000000, 371.000000)">
                            <rect id="矩形" stroke="#B5E2F2" stroke-width="4" x="1" y="2" width="1548" height="3904"></rect>
                            <rect id="矩形" stroke="#B5E2F2" stroke-width="4" x="1" y="2" width="774" height="3904"></rect>
                            <rect id="矩形" stroke="#B5E2F2" stroke-width="4" transform="translate(968.000000, 1954.500000) scale(-1, 1) translate(-968.000000, -1954.500000) " x="774.5" y="2.5" width="387" height="3904"></rect>
                            <rect id="矩形" stroke="#B5E2F2" stroke-width="4" transform="translate(1114.000000, 1954.500000) scale(-1, 1) translate(-1114.000000, -1954.500000) " x="1065.5" y="2.5" width="97" height="3904"></rect>
                            <rect id="矩形" stroke="#B5E2F2" stroke-width="4" x="1017" y="2" width="48" height="3904"></rect>
                            <rect id="矩形" stroke="#B5E2F2" stroke-width="4" x="1162" y="2" width="194" height="3904"></rect>
                            <rect id="矩形" stroke="#B5E2F2" stroke-width="4" x="1307.5" y="0.5" width="49" height="3904"></rect>
                            <rect id="矩形" stroke="#B5E2F2" stroke-width="4" x="1162.5" y="2.5" width="97" height="3904"></rect>
                            <rect id="矩形" stroke="#B5E2F2" stroke-width="4" transform="translate(1138.000000, 1954.000000) scale(-1, 1) translate(-1138.000000, -1954.000000) " x="1114" y="2" width="48" height="3904"></rect>
                            <rect id="矩形" stroke="#B5E2F2" stroke-width="4" transform="translate(1356.000000, 1952.000000) scale(-1, 1) translate(-1356.000000, -1952.000000) " x="1259" y="0" width="194" height="3904"></rect>
                            <rect id="矩形" stroke="#B5E2F2" stroke-width="4" transform="translate(1428.000000, 1954.000000) scale(-1, 1) translate(-1428.000000, -1954.000000) " x="1403" y="2" width="50" height="3904"></rect>
                            <rect id="矩形" stroke="#B5E2F2" stroke-width="4" x="1453" y="2" width="50" height="3904"></rect>
                            <rect id="矩形" stroke="#B5E2F2" stroke-width="4" x="1211" y="2" width="48" height="3904"></rect>
                            <rect id="矩形" stroke="#B5E2F2" stroke-width="4" transform="translate(872.000000, 1954.000000) scale(-1, 1) translate(-872.000000, -1954.000000) " x="775" y="2" width="194" height="3904"></rect>
                            <rect id="矩形" stroke="#B5E2F2" stroke-width="4" transform="translate(944.000000, 1954.500000) scale(-1, 1) translate(-944.000000, -1954.500000) " x="919.5" y="2.5" width="49" height="3904"></rect>
                            <rect id="矩形" stroke="#B5E2F2" stroke-width="4" transform="translate(824.000000, 1954.500000) scale(-1, 1) translate(-824.000000, -1954.500000) " x="775.5" y="2.5" width="97" height="3904"></rect>
                            <rect id="矩形" stroke="#B5E2F2" stroke-width="4" transform="translate(848.000000, 1954.500000) scale(-1, 1) translate(-848.000000, -1954.500000) " x="823.5" y="2.5" width="49" height="3904"></rect>
                            <rect id="矩形" stroke="#B5E2F2" stroke-width="4" x="727" y="2" width="48" height="3904"></rect>
                            <rect id="矩形" stroke="#B5E2F2" stroke-width="4" x="0.5" y="2.5" width="387" height="3904"></rect>
                            <rect id="矩形" stroke="#B5E2F2" stroke-width="4" transform="translate(485.000000, 1954.000000) scale(-1, 1) translate(-485.000000, -1954.000000) " x="388" y="2" width="194" height="3904"></rect>
                            <rect id="矩形" stroke="#B5E2F2" stroke-width="4" x="581.5" y="2.5" width="97" height="3904"></rect>
                            <rect id="矩形" stroke="#B5E2F2" stroke-width="4" x="629.5" y="2.5" width="49" height="3904"></rect>
                            <rect id="矩形" stroke="#B5E2F2" stroke-width="4" transform="translate(557.000000, 1954.000000) scale(-1, 1) translate(-557.000000, -1954.000000) " x="533" y="2" width="48" height="3904"></rect>
                            <rect id="矩形" stroke="#B5E2F2" stroke-width="4" transform="translate(437.000000, 1954.500000) scale(-1, 1) translate(-437.000000, -1954.500000) " x="388.5" y="2.5" width="97" height="3904"></rect>
                            <rect id="矩形" stroke="#B5E2F2" stroke-width="4" transform="translate(461.000000, 1954.500000) scale(-1, 1) translate(-461.000000, -1954.500000) " x="436.5" y="2.5" width="49" height="3904"></rect>
                            <rect id="矩形" stroke="#B5E2F2" stroke-width="4" x="339" y="2" width="48" height="3904"></rect>
                            <rect id="矩形" stroke="#B5E2F2" stroke-width="4" x="1" y="2" width="194" height="3904"></rect>
                            <rect id="矩形" stroke="#B5E2F2" stroke-width="4" transform="translate(243.000000, 1954.500000) scale(-1, 1) translate(-243.000000, -1954.500000) " x="194.5" y="2.5" width="97" height="3904"></rect>
                            <rect id="矩形" stroke="#B5E2F2" stroke-width="4" transform="translate(267.000000, 1954.500000) scale(-1, 1) translate(-267.000000, -1954.500000) " x="242.5" y="2.5" width="49" height="3904"></rect>
                            <rect id="矩形" stroke="#B5E2F2" stroke-width="4" x="0.5" y="2.5" width="97" height="3904"></rect>
                            <rect id="矩形" stroke="#B5E2F2" stroke-width="4" transform="translate(122.000000, 1954.000000) scale(-1, 1) translate(-122.000000, -1954.000000) " x="98" y="2" width="48" height="3904"></rect>
                            <rect id="矩形" stroke="#B5E2F2" stroke-width="4" x="0.5" y="2.5" width="49" height="3904"></rect>
                        </g>
                        <g id="编组备份" transform="translate(2001.500000, 3872.500000) rotate(-90.000000) translate(-2001.500000, -3872.500000) translate(1227.000000, 1919.000000)">
                            <rect id="矩形" stroke="#B5E2F2" stroke-width="4" x="1" y="2" width="1548" height="3904"></rect>
                            <rect id="矩形" stroke="#B5E2F2" stroke-width="4" x="1" y="2" width="774" height="3904"></rect>
                            <rect id="矩形" stroke="#B5E2F2" stroke-width="4" transform="translate(968.000000, 1954.500000) scale(-1, 1) translate(-968.000000, -1954.500000) " x="774.5" y="2.5" width="387" height="3904"></rect>
                            <rect id="矩形" stroke="#B5E2F2" stroke-width="4" transform="translate(1114.000000, 1954.500000) scale(-1, 1) translate(-1114.000000, -1954.500000) " x="1065.5" y="2.5" width="97" height="3904"></rect>
                            <rect id="矩形" stroke="#B5E2F2" stroke-width="4" x="1017" y="2" width="48" height="3904"></rect>
                            <rect id="矩形" stroke="#B5E2F2" stroke-width="4" x="1162" y="2" width="194" height="3904"></rect>
                            <rect id="矩形" stroke="#B5E2F2" stroke-width="4" x="1307.5" y="0.5" width="49" height="3904"></rect>
                            <rect id="矩形" stroke="#B5E2F2" stroke-width="4" x="1162.5" y="2.5" width="97" height="3904"></rect>
                            <rect id="矩形" stroke="#B5E2F2" stroke-width="4" transform="translate(1138.000000, 1954.000000) scale(-1, 1) translate(-1138.000000, -1954.000000) " x="1114" y="2" width="48" height="3904"></rect>
                            <rect id="矩形" stroke="#B5E2F2" stroke-width="4" transform="translate(1356.000000, 1952.000000) scale(-1, 1) translate(-1356.000000, -1952.000000) " x="1259" y="0" width="194" height="3904"></rect>
                            <rect id="矩形" stroke="#B5E2F2" stroke-width="4" transform="translate(1428.000000, 1954.000000) scale(-1, 1) translate(-1428.000000, -1954.000000) " x="1403" y="2" width="50" height="3904"></rect>
                            <rect id="矩形" stroke="#B5E2F2" stroke-width="4" x="1453" y="2" width="50" height="3904"></rect>
                            <rect id="矩形" stroke="#B5E2F2" stroke-width="4" x="1211" y="2" width="48" height="3904"></rect>
                            <rect id="矩形" stroke="#B5E2F2" stroke-width="4" transform="translate(872.000000, 1954.000000) scale(-1, 1) translate(-872.000000, -1954.000000) " x="775" y="2" width="194" height="3904"></rect>
                            <rect id="矩形" stroke="#B5E2F2" stroke-width="4" transform="translate(944.000000, 1954.500000) scale(-1, 1) translate(-944.000000, -1954.500000) " x="919.5" y="2.5" width="49" height="3904"></rect>
                            <rect id="矩形" stroke="#B5E2F2" stroke-width="4" transform="translate(824.000000, 1954.500000) scale(-1, 1) translate(-824.000000, -1954.500000) " x="775.5" y="2.5" width="97" height="3904"></rect>
                            <rect id="矩形" stroke="#B5E2F2" stroke-width="4" transform="translate(848.000000, 1954.500000) scale(-1, 1) translate(-848.000000, -1954.500000) " x="823.5" y="2.5" width="49" height="3904"></rect>
                            <rect id="矩形" stroke="#B5E2F2" stroke-width="4" x="727" y="2" width="48" height="3904"></rect>
                            <rect id="矩形" stroke="#B5E2F2" stroke-width="4" x="0.5" y="2.5" width="387" height="3904"></rect>
                            <rect id="矩形" stroke="#B5E2F2" stroke-width="4" transform="translate(485.000000, 1954.000000) scale(-1, 1) translate(-485.000000, -1954.000000) " x="388" y="2" width="194" height="3904"></rect>
                            <rect id="矩形" stroke="#B5E2F2" stroke-width="4" x="581.5" y="2.5" width="97" height="3904"></rect>
                            <rect id="矩形" stroke="#B5E2F2" stroke-width="4" x="629.5" y="2.5" width="49" height="3904"></rect>
                            <rect id="矩形" stroke="#B5E2F2" stroke-width="4" transform="translate(557.000000, 1954.000000) scale(-1, 1) translate(-557.000000, -1954.000000) " x="533" y="2" width="48" height="3904"></rect>
                            <rect id="矩形" stroke="#B5E2F2" stroke-width="4" transform="translate(437.000000, 1954.500000) scale(-1, 1) translate(-437.000000, -1954.500000) " x="388.5" y="2.5" width="97" height="3904"></rect>
                            <rect id="矩形" stroke="#B5E2F2" stroke-width="4" transform="translate(461.000000, 1954.500000) scale(-1, 1) translate(-461.000000, -1954.500000) " x="436.5" y="2.5" width="49" height="3904"></rect>
                            <rect id="矩形" stroke="#B5E2F2" stroke-width="4" x="339" y="2" width="48" height="3904"></rect>
                            <rect id="矩形" stroke="#B5E2F2" stroke-width="4" transform="translate(243.000000, 1954.500000) scale(-1, 1) translate(-243.000000, -1954.500000) " x="194.5" y="2.5" width="97" height="3904"></rect>
                            <rect id="矩形" stroke="#B5E2F2" stroke-width="4" transform="translate(267.000000, 1954.500000) scale(-1, 1) translate(-267.000000, -1954.500000) " x="242.5" y="2.5" width="49" height="3904"></rect>
                        </g>
                        <g id="编组" transform="translate(1954.000000, 775.000000) rotate(-90.000000) translate(-1954.000000, -775.000000) translate(1179.500000, -1178.500000)">
                            <rect id="矩形" stroke="#B5E2F2" stroke-width="4" x="0.5" y="2.5" width="1548" height="3904"></rect>
                            <rect id="矩形" stroke="#B5E2F2" stroke-width="4" x="0.5" y="2.5" width="774" height="3904"></rect>
                            <rect id="矩形" stroke="#B5E2F2" stroke-width="4" transform="translate(967.500000, 1955.000000) scale(-1, 1) translate(-967.500000, -1955.000000) " x="774" y="3" width="387" height="3904"></rect>
                            <rect id="矩形" stroke="#B5E2F2" stroke-width="4" transform="translate(1113.500000, 1955.000000) scale(-1, 1) translate(-1113.500000, -1955.000000) " x="1065" y="3" width="97" height="3904"></rect>
                            <rect id="矩形" stroke="#B5E2F2" stroke-width="4" x="1016.5" y="2.5" width="48" height="3904"></rect>
                            <rect id="矩形" stroke="#B5E2F2" stroke-width="4" x="1161.5" y="2.5" width="194" height="3904"></rect>
                            <rect id="矩形" stroke="#B5E2F2" stroke-width="4" x="1307" y="2" width="49" height="3904"></rect>
                            <rect id="矩形" stroke="#B5E2F2" stroke-width="4" x="1162" y="3" width="97" height="3904"></rect>
                            <rect id="矩形" stroke="#B5E2F2" stroke-width="4" transform="translate(1137.500000, 1954.500000) scale(-1, 1) translate(-1137.500000, -1954.500000) " x="1113.5" y="2.5" width="48" height="3904"></rect>
                            <rect id="矩形" stroke="#B5E2F2" stroke-width="4" transform="translate(1355.500000, 1952.500000) scale(-1, 1) translate(-1355.500000, -1952.500000) " x="1258.5" y="0.5" width="194" height="3904"></rect>
                            <rect id="矩形" stroke="#B5E2F2" stroke-width="4" transform="translate(1427.500000, 1954.500000) scale(-1, 1) translate(-1427.500000, -1954.500000) " x="1402.5" y="2.5" width="50" height="3904"></rect>
                            <rect id="矩形" stroke="#B5E2F2" stroke-width="4" x="1452.5" y="2.5" width="50" height="3904"></rect>
                            <rect id="矩形" stroke="#B5E2F2" stroke-width="4" x="1210.5" y="2.5" width="48" height="3904"></rect>
                            <rect id="矩形" stroke="#B5E2F2" stroke-width="4" transform="translate(871.500000, 1954.500000) scale(-1, 1) translate(-871.500000, -1954.500000) " x="774.5" y="2.5" width="194" height="3904"></rect>
                            <rect id="矩形" stroke="#B5E2F2" stroke-width="4" transform="translate(943.500000, 1955.000000) scale(-1, 1) translate(-943.500000, -1955.000000) " x="919" y="3" width="49" height="3904"></rect>
                            <rect id="矩形" stroke="#B5E2F2" stroke-width="4" transform="translate(823.500000, 1955.000000) scale(-1, 1) translate(-823.500000, -1955.000000) " x="775" y="3" width="97" height="3904"></rect>
                            <rect id="矩形" stroke="#B5E2F2" stroke-width="4" transform="translate(847.500000, 1955.000000) scale(-1, 1) translate(-847.500000, -1955.000000) " x="823" y="3" width="49" height="3904"></rect>
                            <rect id="矩形" stroke="#B5E2F2" stroke-width="4" x="726.5" y="2.5" width="48" height="3904"></rect>
                            <rect id="矩形" stroke="#B5E2F2" stroke-width="4" x="0" y="3" width="387" height="3904"></rect>
                            <rect id="矩形" stroke="#B5E2F2" stroke-width="4" transform="translate(484.500000, 1954.500000) scale(-1, 1) translate(-484.500000, -1954.500000) " x="387.5" y="2.5" width="194" height="3904"></rect>
                            <rect id="矩形" stroke="#B5E2F2" stroke-width="4" x="581" y="3" width="97" height="3904"></rect>
                            <rect id="矩形" stroke="#B5E2F2" stroke-width="4" x="629" y="3" width="49" height="3904"></rect>
                            <rect id="矩形" stroke="#B5E2F2" stroke-width="4" transform="translate(556.500000, 1954.500000) scale(-1, 1) translate(-556.500000, -1954.500000) " x="532.5" y="2.5" width="48" height="3904"></rect>
                            <rect id="矩形" stroke="#B5E2F2" stroke-width="4" transform="translate(436.500000, 1955.000000) scale(-1, 1) translate(-436.500000, -1955.000000) " x="388" y="3" width="97" height="3904"></rect>
                            <rect id="矩形" stroke="#B5E2F2" stroke-width="4" transform="translate(460.500000, 1955.000000) scale(-1, 1) translate(-460.500000, -1955.000000) " x="436" y="3" width="49" height="3904"></rect>
                            <rect id="矩形" stroke="#B5E2F2" stroke-width="4" x="338.5" y="2.5" width="48" height="3904"></rect>
                            <rect id="矩形" stroke="#B5E2F2" stroke-width="4" x="0.5" y="2.5" width="194" height="3904"></rect>
                            <rect id="矩形" stroke="#B5E2F2" stroke-width="4" transform="translate(242.500000, 1955.000000) scale(-1, 1) translate(-242.500000, -1955.000000) " x="194" y="3" width="97" height="3904"></rect>
                            <rect id="矩形" stroke="#B5E2F2" stroke-width="4" transform="translate(266.500000, 1955.000000) scale(-1, 1) translate(-266.500000, -1955.000000) " x="242" y="3" width="49" height="3904"></rect>
                            <rect id="矩形" stroke="#B5E2F2" stroke-width="4" x="0" y="3" width="97" height="3904"></rect>
                            <rect id="矩形" stroke="#B5E2F2" stroke-width="4" transform="translate(121.500000, 1954.500000) scale(-1, 1) translate(-121.500000, -1954.500000) " x="97.5" y="2.5" width="48" height="3904"></rect>
                            <rect id="1" stroke="#B5E2F2" stroke-width="4" x="0" y="3" width="49" height="3904"></rect>
                        </g>
                    </g>
                </g>
            </g>
        </g>
    </g>
</svg>