<?xml version="1.0" encoding="UTF-8"?>
<svg width="478px" height="569px" viewBox="0 0 478 569" version="1.1" xmlns="http://www.w3.org/2000/svg" xmlns:xlink="http://www.w3.org/1999/xlink">
    <!-- Generator: Sketch 57.1 (83088) - https://sketch.com -->
    <title>编组 4</title>
    <desc>Created with Sketch.</desc>
    <g id="页面-1" stroke="none" stroke-width="1" fill="none" fill-rule="evenodd" opacity="0.888416109">
        <g id="认识毒品" transform="translate(-1442.000000, 0.000000)">
            <g id="编组-4" transform="translate(1442.000000, 0.000000)">
                <text id="校-学-官-军-军-陆" font-family="FZJZFW--GB1-0, FZJianZhi-M23T" font-size="55" font-weight="normal" fill="#FFFFFF">
                    <tspan x="40" y="188">校 学 官 军 军 陆</tspan>
                </text>
                <rect id="矩形" stroke="#FFFFFF" stroke-width="3" x="91" y="100" width="302" height="7"></rect>
                <rect id="矩形备份-4" stroke="#FFFFFF" stroke-width="3" x="91" y="108" width="302" height="7"></rect>
                <rect id="矩形备份-5" stroke="#FFFFFF" stroke-width="3" x="87" y="115" width="308" height="13"></rect>
                <polygon id="三角形" stroke="#FFFFFF" stroke-width="4" points="238.5 0 388 99 89 99"></polygon>
                <rect id="矩形" stroke="#FFFFFF" stroke-width="2" x="48" y="47" width="19" height="7"></rect>
                <rect id="矩形备份-6" stroke="#FFFFFF" stroke-width="2" transform="translate(422.500000, 50.500000) scale(-1, 1) translate(-422.500000, -50.500000) " x="413" y="47" width="19" height="7"></rect>
                <rect id="矩形" stroke="#FFFFFF" stroke-width="3" x="52" y="54" width="11" height="14"></rect>
                <rect id="矩形备份-7" stroke="#FFFFFF" stroke-width="3" transform="translate(422.500000, 61.000000) scale(-1, 1) translate(-422.500000, -61.000000) " x="417" y="54" width="11" height="14"></rect>
                <path d="M89,100 C89,82.326888 75.1208272,68 58,68 C40.8791728,68 27,82.326888 27,100" id="路径" stroke="#FFFFFF" stroke-width="3"></path>
                <path d="M454,100 C454,82.326888 440.120827,68 423,68 C405.879173,68 392,82.326888 392,100" id="路径备份" stroke="#FFFFFF" stroke-width="3" transform="translate(423.000000, 84.000000) scale(-1, 1) translate(-423.000000, -84.000000) "></path>
                <path d="M57.5,47 C64.4035594,47 70,45.1797017 70,38 C70,33.2135322 65.8333333,27.2135322 57.5,20 C49.1666667,27.2135322 45,33.2135322 45,38 C45,45.1797017 50.5964406,47 57.5,47 Z" id="椭圆形备份" stroke="#FFFFFF" stroke-width="2"></path>
                <path d="M422.5,47 C429.403559,47 435,45.1797017 435,38 C435,33.2135322 430.833333,27.2135322 422.5,20 C414.166667,27.2135322 410,33.2135322 410,38 C410,45.1797017 415.596441,47 422.5,47 Z" id="椭圆形备份-2" stroke="#FFFFFF" stroke-width="2" transform="translate(422.500000, 33.500000) scale(-1, 1) translate(-422.500000, -33.500000) "></path>
                <rect id="矩形" stroke="#FFFFFF" stroke-width="3" x="32" y="119" width="52" height="10"></rect>
                <rect id="矩形备份-8" stroke="#FFFFFF" stroke-width="3" transform="translate(423.000000, 124.000000) scale(-1, 1) translate(-423.000000, -124.000000) " x="397" y="119" width="52" height="10"></rect>
                <rect id="矩形备份" stroke="#FFFFFF" stroke-width="3" x="32" y="112" width="52" height="7"></rect>
                <rect id="矩形备份-9" stroke="#FFFFFF" stroke-width="3" transform="translate(423.000000, 115.500000) scale(-1, 1) translate(-423.000000, -115.500000) " x="397" y="112" width="52" height="7"></rect>
                <rect id="矩形备份-2" stroke="#FFFFFF" stroke-width="3" x="30" y="105" width="57" height="7"></rect>
                <rect id="矩形备份-10" stroke="#FFFFFF" stroke-width="3" transform="translate(423.500000, 108.500000) scale(-1, 1) translate(-423.500000, -108.500000) " x="395" y="105" width="57" height="7"></rect>
                <rect id="矩形备份-3" stroke="#FFFFFF" stroke-width="3" x="25" y="100" width="66" height="5"></rect>
                <rect id="矩形备份-11" stroke="#FFFFFF" stroke-width="3" transform="translate(423.000000, 102.500000) scale(-1, 1) translate(-423.000000, -102.500000) " x="390" y="100" width="66" height="5"></rect>
                <rect id="矩形" stroke="#FFFFFF" stroke-width="3" x="2" y="129" width="476" height="80"></rect>
                <rect id="矩形" stroke="#FFFFFF" stroke-width="4" x="21" y="528" width="70" height="13" rx="2"></rect>
                <rect id="矩形备份-12" stroke="#FFFFFF" stroke-width="4" transform="translate(421.000000, 534.500000) scale(-1, 1) translate(-421.000000, -534.500000) " x="386" y="528" width="70" height="13" rx="2"></rect>
                <rect id="矩形" stroke="#FFFFFF" stroke-width="4" x="30" y="210" width="54" height="318" rx="2"></rect>
                <rect id="矩形备份-13" stroke="#FFFFFF" stroke-width="4" transform="translate(422.000000, 369.000000) scale(-1, 1) translate(-422.000000, -369.000000) " x="395" y="210" width="54" height="318" rx="2"></rect>
                <rect id="矩形" stroke="#FFFFFF" stroke-width="4" x="30" y="541" width="57" height="26" rx="2"></rect>
                <rect id="矩形备份-14" stroke="#FFFFFF" stroke-width="4" transform="translate(423.500000, 554.000000) scale(-1, 1) translate(-423.500000, -554.000000) " x="395" y="541" width="57" height="26" rx="2"></rect>
                <path d="M84,271 C211.333333,233.666667 315,233.666667 395,271 C390.666667,275.666667 387.333333,278.833333 385,280.5 C304.666667,244.833333 207.5,244 93.5,278 C87.5,273.666667 84.3333333,271.333333 84,271 Z" id="路径-2" stroke="#FFFFFF" stroke-width="3"></path>
            </g>
        </g>
    </g>
</svg>