<?xml version="1.0" encoding="UTF-8"?>
<svg width="90px" height="90px" viewBox="0 0 90 90" version="1.1" xmlns="http://www.w3.org/2000/svg" xmlns:xlink="http://www.w3.org/1999/xlink">
    <!-- Generator: Sketch 57.1 (83088) - https://sketch.com -->
    <title>暂停播放</title>
    <desc>Created with Sketch.</desc>
    <g id="页面-1" stroke="none" stroke-width="1" fill="none" fill-rule="evenodd" opacity="0.791108631">
        <g id="认识毒品" transform="translate(-383.000000, -480.000000)">
            <g id="编组-2" transform="translate(195.000000, 358.000000)">
                <g id="暂停播放" transform="translate(188.000000, 122.000000)">
                    <circle id="椭圆形" stroke="#FFFFFF" stroke-width="4" cx="45" cy="45" r="43"></circle>
                    <path d="M53.1210657,27.70722 L72.5168933,62.540543 C73.3229291,63.9881176 72.8028592,65.8150298 71.3552846,66.6210657 C70.9089933,66.8695688 70.4066404,67 69.8958276,67 L31.1041724,67 C29.4473182,67 28.1041724,65.6568542 28.1041724,64 C28.1041724,63.4891872 28.2346037,62.9868342 28.4831067,62.540543 L47.8789343,27.70722 C48.6849702,26.2596454 50.5118824,25.7395755 51.959457,26.5456113 C52.4471967,26.8171936 52.8494834,27.2194803 53.1210657,27.70722 Z" id="三角形" fill="#FFFFFF" transform="translate(50.500000, 45.000000) rotate(-270.000000) translate(-50.500000, -45.000000) "></path>
                </g>
            </g>
        </g>
    </g>
</svg>