<?xml version="1.0" encoding="UTF-8"?>
<svg width="845px" height="643px" viewBox="0 0 845 643" version="1.1" xmlns="http://www.w3.org/2000/svg" xmlns:xlink="http://www.w3.org/1999/xlink">
    <!-- Generator: Sketch 57.1 (83088) - https://sketch.com -->
    <title>编组 5</title>
    <desc>Created with Sketch.</desc>
    <g id="页面-1" stroke="none" stroke-width="1" fill="none" fill-rule="evenodd" opacity="0.555338542">
        <g id="认识毒品" transform="translate(-236.000000, 105.000000)">
            <g id="编组-5" transform="translate(658.000000, 265.500000) rotate(-28.000000) translate(-658.000000, -265.500000) translate(164.000000, -170.000000)">
                <g id="科学广场" transform="translate(493.972385, 435.620501) rotate(-332.000000) translate(-493.972385, -435.620501) translate(80.472385, 162.620501)">
                    <g id="编组">
                        <polygon id="矩形" fill="#A2E0F9" points="357 84.5 399 84.5 342 545 59 545"></polygon>
                        <polygon id="矩形备份" fill="#A2E0F9" transform="translate(615.500000, 272.500000) scale(-1, 1) translate(-615.500000, -272.500000) " points="725 9.68114477e-13 761.5 0.5 747 545 469.5 544.5"></polygon>
                        <polygon id="矩形" fill="#88C4DC" points="342 84.5 357 84.5 65 544.5 0 546"></polygon>
                        <polygon id="矩形备份-2" fill="#88C4DC" transform="translate(666.500000, 273.250000) scale(-1, 1) translate(-666.500000, -273.250000) " points="826.5 1.5 571.5 544.5 506.5 545"></polygon>
                    </g>
                    <g id="圆圈" transform="translate(53.000000, 0.000000)" fill="#90CAE2">
                        <g id="编组-3备份-6" transform="translate(191.465400, 238.910881)">
                            <ellipse id="椭圆形备份-14" cx="246.441972" cy="7" rx="6.99367889" ry="7"></ellipse>
                            <ellipse id="椭圆形备份-16" cx="389.804046" cy="7" rx="6.99367889" ry="7"></ellipse>
                            <ellipse id="椭圆形备份-9" cx="103.079899" cy="7" rx="6.99367889" ry="7"></ellipse>
                            <ellipse id="椭圆形备份-18" cx="294.22933" cy="7" rx="6.99367889" ry="7"></ellipse>
                            <ellipse id="椭圆形备份-10" cx="7.50518331" cy="7" rx="6.99367889" ry="7"></ellipse>
                            <ellipse id="椭圆形备份-22" cx="342.016688" cy="7" rx="6.99367889" ry="7"></ellipse>
                            <ellipse id="椭圆形备份-12" cx="55.2925411" cy="7" rx="6.99367889" ry="7"></ellipse>
                        </g>
                        <g id="编组-3备份-3" transform="translate(287.461328, 96.204890)">
                            <ellipse id="椭圆形备份-14" cx="150.441972" cy="7" rx="6.99367889" ry="7"></ellipse>
                            <ellipse id="椭圆形备份-9" cx="7.07989886" cy="7" rx="6.99367889" ry="7"></ellipse>
                            <ellipse id="椭圆形备份-18" cx="198.22933" cy="7" rx="6.99367889" ry="7"></ellipse>
                        </g>
                        <g id="编组-3备份-7" transform="translate(95.000000, 382.499820)">
                            <ellipse id="椭圆形备份-14" cx="342.441972" cy="7" rx="6.99367889" ry="7"></ellipse>
                            <ellipse id="椭圆形备份-8" cx="55.7178255" cy="7" rx="6.99367889" ry="7"></ellipse>
                            <ellipse id="椭圆形备份-16" cx="485.804046" cy="7" rx="6.99367889" ry="7"></ellipse>
                            <ellipse id="椭圆形备份-9" cx="199.079899" cy="7" rx="6.99367889" ry="7"></ellipse>
                            <ellipse id="椭圆形备份-18" cx="390.22933" cy="7" rx="6.99367889" ry="7"></ellipse>
                            <ellipse id="椭圆形备份-10" cx="103.505183" cy="7" rx="6.99367889" ry="7"></ellipse>
                            <ellipse id="椭圆形备份-20" cx="533.591403" cy="7" rx="6.99367889" ry="7"></ellipse>
                            <ellipse id="椭圆形备份-22" cx="438.016688" cy="7" rx="6.99367889" ry="7"></ellipse>
                            <ellipse id="椭圆形备份-12" cx="151.292541" cy="7" rx="6.99367889" ry="7"></ellipse>
                            <ellipse id="椭圆形备份-7" cx="7.93046776" cy="7" rx="6.99367889" ry="7"></ellipse>
                            <ellipse id="椭圆形备份-24" cx="576.378761" cy="7" rx="6.99367889" ry="7"></ellipse>
                        </g>
                        <g id="编组-3备份-12" transform="translate(0.887019, 525.675283)">
                            <ellipse id="椭圆形备份-14" cx="437.441972" cy="7" rx="6.99367889" ry="7"></ellipse>
                            <ellipse id="椭圆形备份-8" cx="150.717826" cy="7" rx="6.99367889" ry="7"></ellipse>
                            <ellipse id="椭圆形备份-15" cx="724.166119" cy="7" rx="6.99367889" ry="7"></ellipse>
                            <ellipse id="椭圆形备份-5" cx="7.35575221" cy="7" rx="6.99367889" ry="7"></ellipse>
                            <ellipse id="椭圆形备份-16" cx="580.804046" cy="7" rx="6.99367889" ry="7"></ellipse>
                            <ellipse id="椭圆形备份-18" cx="485.22933" cy="7" rx="6.99367889" ry="7"></ellipse>
                            <ellipse id="椭圆形备份-10" cx="198.505183" cy="7" rx="6.99367889" ry="7"></ellipse>
                            <ellipse id="椭圆形备份-6" cx="55.14311" cy="7" rx="6.99367889" ry="7"></ellipse>
                            <ellipse id="椭圆形备份-20" cx="628.591403" cy="7" rx="6.99367889" ry="7"></ellipse>
                            <ellipse id="椭圆形备份-22" cx="533.016688" cy="7" rx="6.99367889" ry="7"></ellipse>
                            <ellipse id="椭圆形备份-12" cx="246.292541" cy="7" rx="6.99367889" ry="7"></ellipse>
                            <ellipse id="椭圆形备份-7" cx="102.930468" cy="7" rx="6.99367889" ry="7"></ellipse>
                            <ellipse id="椭圆形备份-24" cx="676.378761" cy="7" rx="6.99367889" ry="7"></ellipse>
                        </g>
                        <g id="编组-3备份" transform="translate(430.633769, 0.028124)">
                            <ellipse id="椭圆形备份-14" cx="7.44197219" cy="7" rx="6.99367889" ry="7"></ellipse>
                        </g>
                        <g id="编组-3备份-8" transform="translate(144.055389, 286.792526)">
                            <ellipse id="椭圆形备份-14" cx="294.441972" cy="7" rx="6.99367889" ry="7"></ellipse>
                            <ellipse id="椭圆形备份-8" cx="7.71782554" cy="7" rx="6.99367889" ry="7"></ellipse>
                            <ellipse id="椭圆形备份-16" cx="437.804046" cy="7" rx="6.99367889" ry="7"></ellipse>
                            <ellipse id="椭圆形备份-9" cx="151.079899" cy="7" rx="6.99367889" ry="7"></ellipse>
                            <ellipse id="椭圆形备份-18" cx="342.22933" cy="7" rx="6.99367889" ry="7"></ellipse>
                            <ellipse id="椭圆形备份-10" cx="55.5051833" cy="7" rx="6.99367889" ry="7"></ellipse>
                            <ellipse id="椭圆形备份-22" cx="390.016688" cy="7" rx="6.99367889" ry="7"></ellipse>
                            <ellipse id="椭圆形备份-12" cx="103.292541" cy="7" rx="6.99367889" ry="7"></ellipse>
                        </g>
                        <g id="编组-3备份-4" transform="translate(243.168369, 143.617063)">
                            <ellipse id="椭圆形备份-14" cx="194.441972" cy="7" rx="6.99367889" ry="7"></ellipse>
                            <ellipse id="椭圆形备份-9" cx="51.0798989" cy="7" rx="6.99367889" ry="7"></ellipse>
                            <ellipse id="椭圆形备份-18" cx="242.22933" cy="7" rx="6.99367889" ry="7"></ellipse>
                            <ellipse id="椭圆形备份-22" cx="290.016688" cy="7" rx="6.99367889" ry="7"></ellipse>
                            <ellipse id="椭圆形备份-12" cx="7.29254109" cy="7" rx="6.99367889" ry="7"></ellipse>
                        </g>
                        <g id="编组-3备份-9" transform="translate(48.589989, 430.381465)">
                            <ellipse id="椭圆形备份-14" cx="389.441972" cy="7" rx="6.99367889" ry="7"></ellipse>
                            <ellipse id="椭圆形备份-8" cx="102.717826" cy="7" rx="6.99367889" ry="7"></ellipse>
                            <ellipse id="椭圆形备份-16" cx="532.804046" cy="7" rx="6.99367889" ry="7"></ellipse>
                            <ellipse id="椭圆形备份-9" cx="246.079899" cy="7" rx="6.99367889" ry="7"></ellipse>
                            <ellipse id="椭圆形备份-18" cx="437.22933" cy="7" rx="6.99367889" ry="7"></ellipse>
                            <ellipse id="椭圆形备份-10" cx="150.505183" cy="7" rx="6.99367889" ry="7"></ellipse>
                            <ellipse id="椭圆形备份-6" cx="7.14310999" cy="7" rx="6.99367889" ry="7"></ellipse>
                            <ellipse id="椭圆形备份-20" cx="580.591403" cy="7" rx="6.99367889" ry="7"></ellipse>
                            <ellipse id="椭圆形备份-22" cx="485.016688" cy="7" rx="6.99367889" ry="7"></ellipse>
                            <ellipse id="椭圆形备份-12" cx="198.292541" cy="7" rx="6.99367889" ry="7"></ellipse>
                            <ellipse id="椭圆形备份-7" cx="54.9304678" cy="7" rx="6.99367889" ry="7"></ellipse>
                            <ellipse id="椭圆形备份-24" cx="628.378761" cy="7" rx="6.99367889" ry="7"></ellipse>
                        </g>
                        <g id="编组-3备份-2" transform="translate(430.340811, 47.440297)">
                            <ellipse id="椭圆形备份-14" cx="7.44197219" cy="7" rx="6.99367889" ry="7"></ellipse>
                        </g>
                        <g id="编组-3备份-10" transform="translate(143.292959, 335.087647)">
                            <ellipse id="椭圆形备份-14" cx="294.441972" cy="7" rx="6.99367889" ry="7"></ellipse>
                            <ellipse id="椭圆形备份-8" cx="7.71782554" cy="7" rx="6.99367889" ry="7"></ellipse>
                            <ellipse id="椭圆形备份-16" cx="437.804046" cy="7" rx="6.99367889" ry="7"></ellipse>
                            <ellipse id="椭圆形备份-9" cx="151.079899" cy="7" rx="6.99367889" ry="7"></ellipse>
                            <ellipse id="椭圆形备份-18" cx="342.22933" cy="7" rx="6.99367889" ry="7"></ellipse>
                            <ellipse id="椭圆形备份-10" cx="55.5051833" cy="7" rx="6.99367889" ry="7"></ellipse>
                            <ellipse id="椭圆形备份-20" cx="485.591403" cy="7" rx="6.99367889" ry="7"></ellipse>
                            <ellipse id="椭圆形备份-22" cx="390.016688" cy="7" rx="6.99367889" ry="7"></ellipse>
                            <ellipse id="椭圆形备份-12" cx="103.292541" cy="7" rx="6.99367889" ry="7"></ellipse>
                        </g>
                        <g id="编组-3备份-5" transform="translate(239.758358, 191.498708)">
                            <ellipse id="椭圆形备份-14" cx="198.441972" cy="7" rx="6.99367889" ry="7"></ellipse>
                            <ellipse id="椭圆形备份-9" cx="55.0798989" cy="7" rx="6.99367889" ry="7"></ellipse>
                            <ellipse id="椭圆形备份-18" cx="246.22933" cy="7" rx="6.99367889" ry="7"></ellipse>
                            <ellipse id="椭圆形备份-22" cx="294.016688" cy="7" rx="6.99367889" ry="7"></ellipse>
                            <ellipse id="椭圆形备份-12" cx="7.29254109" cy="7" rx="6.99367889" ry="7"></ellipse>
                        </g>
                        <g id="编组-3备份-11" transform="translate(0.297030, 477.793638)">
                            <ellipse id="椭圆形备份-14" cx="437.441972" cy="7" rx="6.99367889" ry="7"></ellipse>
                            <ellipse id="椭圆形备份-8" cx="150.717826" cy="7" rx="6.99367889" ry="7"></ellipse>
                            <ellipse id="椭圆形备份-15" cx="724.166119" cy="7" rx="6.99367889" ry="7"></ellipse>
                            <ellipse id="椭圆形备份-5" cx="7.35575221" cy="7" rx="6.99367889" ry="7"></ellipse>
                            <ellipse id="椭圆形备份-16" cx="580.804046" cy="7" rx="6.99367889" ry="7"></ellipse>
                            <ellipse id="椭圆形备份-9" cx="287.079899" cy="7" rx="6.99367889" ry="7"></ellipse>
                            <ellipse id="椭圆形备份-18" cx="485.22933" cy="7" rx="6.99367889" ry="7"></ellipse>
                            <ellipse id="椭圆形备份-10" cx="198.505183" cy="7" rx="6.99367889" ry="7"></ellipse>
                            <ellipse id="椭圆形备份-6" cx="55.14311" cy="7" rx="6.99367889" ry="7"></ellipse>
                            <ellipse id="椭圆形备份-20" cx="628.591403" cy="7" rx="6.99367889" ry="7"></ellipse>
                            <ellipse id="椭圆形备份-22" cx="533.016688" cy="7" rx="6.99367889" ry="7"></ellipse>
                            <ellipse id="椭圆形备份-12" cx="246.292541" cy="7" rx="6.99367889" ry="7"></ellipse>
                            <ellipse id="椭圆形备份-7" cx="102.930468" cy="7" rx="6.99367889" ry="7"></ellipse>
                            <ellipse id="椭圆形备份-24" cx="676.378761" cy="7" rx="6.99367889" ry="7"></ellipse>
                        </g>
                    </g>
                </g>
            </g>
        </g>
    </g>
</svg>