<?xml version="1.0" encoding="UTF-8"?>
<svg width="1286px" height="454px" viewBox="0 0 1286 454" version="1.1" xmlns="http://www.w3.org/2000/svg" xmlns:xlink="http://www.w3.org/1999/xlink">
    <!-- Generator: Sketch 57.1 (83088) - https://sketch.com -->
    <title>编组 7</title>
    <desc>Created with Sketch.</desc>
    <g id="页面-1" stroke="none" stroke-width="1" fill="none" fill-rule="evenodd" opacity="0.899135045">
        <g id="毒品资讯" transform="translate(-625.000000, -128.000000)">
            <g id="编组-7备份" transform="translate(599.000000, 125.000000)">
                <g id="编组-6" transform="translate(60.000000, 149.663462) rotate(-31.000000) translate(-60.000000, -149.663462) translate(17.000000, 106.663462)" fill="#04FFFF">
                    <path d="M39.6826696,66.2600429 L30.914962,70.8694996 C27.5104585,72.659353 23.2996002,71.3504205 21.5097467,67.9459169 C20.7970177,66.5902257 20.5510726,65.0373894 20.8099866,63.5278051 L22.4844697,53.7648192 C22.9295732,51.1696667 22.0691853,48.5216651 20.1836966,46.6837679 L13.0904722,39.7695829 C10.336171,37.0848027 10.279813,32.6755561 12.9645932,29.9212548 C14.0336867,28.8244776 15.4345206,28.1107171 16.9502294,27.8904717 L26.7528245,26.4660713 C29.3585058,26.0874436 31.6110305,24.4508887 32.7763266,22.0897409 L37.1601804,13.2070829 C38.8624321,9.75794404 43.0384593,8.34181228 46.4875982,10.0440641 C47.8610633,10.7219096 48.9727714,11.8336177 49.650617,13.2070829 L54.0344708,22.0897409 C55.1997669,24.4508887 57.4522916,26.0874436 60.0579728,26.4660713 L69.8605679,27.8904717 C73.6669186,28.4435669 76.3042033,31.977596 75.7511082,35.7839467 C75.5308628,37.2996555 74.8171023,38.7004893 73.7203251,39.7695829 L66.6271007,46.6837679 C64.741612,48.5216651 63.8812241,51.1696667 64.3263276,53.7648192 L66.0008108,63.5278051 C66.6510131,67.3187755 64.1049175,70.9190574 60.3139471,71.5692597 C58.8043627,71.8281737 57.2515264,71.5822286 55.8958353,70.8694996 L47.1281277,66.2600429 C44.7975355,65.0347781 42.0132618,65.0347781 39.6826696,66.2600429 Z" id="星形备份-3"></path>
                </g>
                <g id="药丸" transform="translate(80.191721, 284.316987) rotate(-330.000000) translate(-80.191721, -284.316987) translate(62.191721, 245.816987)" stroke="#FFFFFF" stroke-width="5">
                    <rect id="矩形" x="0.200961894" y="1.6160254" width="35" height="75" rx="17.5"></rect>
                    <path d="M18.5,0 C28.1649831,-1.7754286e-15 36,7.83501688 36,17.5 L36,30 C36,36.0751322 31.0751322,41 25,41 L12,41 C5.92486775,41 1,36.0751322 1,30 L1,17.5 C1,7.83501688 8.83501688,1.7754286e-15 18.5,0 Z" id="矩形备份" fill="#FFFFFF"></path>
                </g>
                <g id="药丸备份" transform="translate(1210.874734, 103.500000) rotate(-330.000000) translate(-1210.874734, -103.500000) translate(1192.874734, 65.000000)" stroke="#FFFFFF" stroke-width="5">
                    <rect id="矩形" x="0.200961894" y="1.6160254" width="35" height="75" rx="17.5"></rect>
                    <path d="M18.5,0 C28.1649831,-1.7754286e-15 36,7.83501688 36,17.5 L36,30 C36,36.0751322 31.0751322,41 25,41 L12,41 C5.92486775,41 1,36.0751322 1,30 L1,17.5 C1,7.83501688 8.83501688,1.7754286e-15 18.5,0 Z" id="矩形备份" fill="#FFFFFF"></path>
                </g>
                <g id="药丸" transform="translate(1249.874734, 328.000000)" stroke="#FFFFFF" stroke-width="5">
                    <ellipse id="椭圆形" cx="29.5" cy="12" rx="29.5" ry="12"></ellipse>
                    <path d="M0,12 L0,36 C0,42.627417 13.2075999,48 29.5,48 C45.7924001,48 59,42.627417 59,36 L59,13.5 L59,10.5" id="路径"></path>
                </g>
                <g id="星形-2" transform="translate(411.030179, 0.000000)" fill="#FF93C0" stroke="#FF93C0" stroke-width="5">
                    <path d="M26.777271,47.7071545 L21.5362749,50.4625092 C19.0930429,51.7469922 16.0711328,50.8076406 14.7866498,48.3644087 C14.2751619,47.3915009 14.0986601,46.2771125 14.284469,45.1937637 L15.2854101,39.3578288 C15.7305137,36.7626763 14.8701258,34.1146747 12.9846371,32.2767775 L8.74458219,28.1437454 C6.76796601,26.2170208 6.72752088,23.0527379 8.65424547,21.0761218 C9.4214773,20.2890228 10.4267816,19.7767947 11.5145256,19.6187363 L17.3741373,18.7672848 C19.9798186,18.3886572 22.2323433,16.7521022 23.3976394,14.3909544 L26.0181375,9.08124542 C27.2397534,6.60598108 30.2366671,5.58969829 32.7119314,6.81131427 C33.6975946,7.29776816 34.4954087,8.09558218 34.9818625,9.08124542 L37.6023606,14.3909544 C38.7676567,16.7521022 41.0201814,18.3886572 43.6258627,18.7672848 L49.4854744,19.6187363 C52.2170908,20.0156633 54.1097304,22.5518489 53.7128033,25.2834653 C53.5547449,26.3712093 53.0425167,27.3765136 52.2554178,28.1437454 L48.0153629,32.2767775 C46.1298742,34.1146747 45.2694863,36.7626763 45.7145899,39.3578288 L46.715531,45.1937637 C47.1821468,47.9143425 45.3549488,50.4980742 42.63437,50.96469 C41.5510213,51.1504988 40.4366329,50.9739971 39.4637251,50.4625092 L34.222729,47.7071545 C31.8921368,46.4818896 29.1078632,46.4818896 26.777271,47.7071545 Z" id="星形"></path>
                </g>
                <path d="M599.80745,101.707154 L594.566454,104.462509 C592.123222,105.746992 589.101311,104.807641 587.816828,102.364409 C587.30534,101.391501 587.128839,100.277112 587.314648,99.1937637 L588.315589,93.3578288 C588.760692,90.7626763 587.900304,88.1146747 586.014816,86.2767775 L581.774761,82.1437454 C579.798145,80.2170208 579.757699,77.0527379 581.684424,75.0761218 C582.451656,74.2890228 583.45696,73.7767947 584.544704,73.6187363 L590.404316,72.7672848 C593.009997,72.3886572 595.262522,70.7521022 596.427818,68.3909544 L599.048316,63.0812454 C600.269932,60.6059811 603.266846,59.5896983 605.74211,60.8113143 C606.727773,61.2977682 607.525587,62.0955822 608.012041,63.0812454 L610.632539,68.3909544 C611.797835,70.7521022 614.05036,72.3886572 616.656041,72.7672848 L622.515653,73.6187363 C625.247269,74.0156633 627.139909,76.5518489 626.742982,79.2834653 C626.584923,80.3712093 626.072695,81.3765136 625.285596,82.1437454 L621.045542,86.2767775 C619.160053,88.1146747 618.299665,90.7626763 618.744768,93.3578288 L619.74571,99.1937637 C620.212325,101.914343 618.385127,104.498074 615.664549,104.96469 C614.5812,105.150499 613.466811,104.973997 612.493904,104.462509 L607.252908,101.707154 C604.922315,100.48189 602.138042,100.48189 599.80745,101.707154 Z" id="星形备份" stroke="#04FFFF" stroke-width="5"></path>
                <path d="M323.652005,453.707154 L318.411009,456.462509 C315.967777,457.746992 312.945867,456.807641 311.661384,454.364409 C311.149896,453.391501 310.973394,452.277112 311.159203,451.193764 L312.160144,445.357829 C312.605248,442.762676 311.74486,440.114675 309.859371,438.276777 L305.619316,434.143745 C303.6427,432.217021 303.602255,429.052738 305.528979,427.076122 C306.296211,426.289023 307.301516,425.776795 308.38926,425.618736 L314.248871,424.767285 C316.854553,424.388657 319.107077,422.752102 320.272373,420.390954 L322.892871,415.081245 C324.114487,412.605981 327.111401,411.589698 329.586665,412.811314 C330.572329,413.297768 331.370143,414.095582 331.856597,415.081245 L334.477095,420.390954 C335.642391,422.752102 337.894915,424.388657 340.500597,424.767285 L346.360208,425.618736 C349.091825,426.015663 350.984464,428.551849 350.587537,431.283465 C350.429479,432.371209 349.917251,433.376514 349.130152,434.143745 L344.890097,438.276777 C343.004608,440.114675 342.14422,442.762676 342.589324,445.357829 L343.590265,451.193764 C344.056881,453.914343 342.229683,456.498074 339.509104,456.96469 C338.425755,457.150499 337.311367,456.973997 336.338459,456.462509 L331.097463,453.707154 C328.766871,452.48189 325.982597,452.48189 323.652005,453.707154 Z" id="星形备份-4" fill="#FFE704"></path>
                <path d="M1051.80745,92.7071545 L1046.56645,95.4625092 C1044.12322,96.7469922 1041.10131,95.8076406 1039.81683,93.3644087 C1039.30534,92.3915009 1039.12884,91.2771125 1039.31465,90.1937637 L1040.31559,84.3578288 C1040.76069,81.7626763 1039.9003,79.1146747 1038.01482,77.2767775 L1033.77476,73.1437454 C1031.79814,71.2170208 1031.7577,68.0527379 1033.68442,66.0761218 C1034.45166,65.2890228 1035.45696,64.7767947 1036.5447,64.6187363 L1042.40432,63.7672848 C1045.01,63.3886572 1047.26252,61.7521022 1048.42782,59.3909544 L1051.04832,54.0812454 C1052.26993,51.6059811 1055.26685,50.5896983 1057.74211,51.8113143 C1058.72777,52.2977682 1059.52559,53.0955822 1060.01204,54.0812454 L1062.63254,59.3909544 C1063.79784,61.7521022 1066.05036,63.3886572 1068.65604,63.7672848 L1074.51565,64.6187363 C1077.24727,65.0156633 1079.13991,67.5518489 1078.74298,70.2834653 C1078.58492,71.3712093 1078.0727,72.3765136 1077.2856,73.1437454 L1073.04554,77.2767775 C1071.16005,79.1146747 1070.29966,81.7626763 1070.74477,84.3578288 L1071.74571,90.1937637 C1072.21233,92.9143425 1070.38513,95.4980742 1067.66455,95.96469 C1066.5812,96.1504988 1065.46681,95.9739971 1064.4939,95.4625092 L1059.25291,92.7071545 C1056.92232,91.4818896 1054.13804,91.4818896 1051.80745,92.7071545 Z" id="星形备份-2" stroke="#FFE704" stroke-width="5"></path>
                <path d="M577.652005,431.707154 L572.411009,434.462509 C569.967777,435.746992 566.945867,434.807641 565.661384,432.364409 C565.149896,431.391501 564.973394,430.277112 565.159203,429.193764 L566.160144,423.357829 C566.605248,420.762676 565.74486,418.114675 563.859371,416.276777 L559.619316,412.143745 C557.6427,410.217021 557.602255,407.052738 559.528979,405.076122 C560.296211,404.289023 561.301516,403.776795 562.38926,403.618736 L568.248871,402.767285 C570.854553,402.388657 573.107077,400.752102 574.272373,398.390954 L576.892871,393.081245 C578.114487,390.605981 581.111401,389.589698 583.586665,390.811314 C584.572329,391.297768 585.370143,392.095582 585.856597,393.081245 L588.477095,398.390954 C589.642391,400.752102 591.894915,402.388657 594.500597,402.767285 L600.360208,403.618736 C603.091825,404.015663 604.984464,406.551849 604.587537,409.283465 C604.429479,410.371209 603.917251,411.376514 603.130152,412.143745 L598.890097,416.276777 C597.004608,418.114675 596.14422,420.762676 596.589324,423.357829 L597.590265,429.193764 C598.056881,431.914343 596.229683,434.498074 593.509104,434.96469 C592.425755,435.150499 591.311367,434.973997 590.338459,434.462509 L585.097463,431.707154 C582.766871,430.48189 579.982597,430.48189 577.652005,431.707154 Z" id="星形备份-5" stroke="#FF93C0" stroke-width="5"></path>
                <g id="编组-5" transform="translate(916.374734, 73.000000) rotate(-31.000000) translate(-916.374734, -73.000000) translate(887.874734, 54.000000)" stroke="#FFFFFF">
                    <circle id="椭圆形" stroke-width="3" cx="28" cy="19" r="19"></circle>
                    <path d="M11.5277642,10.5726319 C4.53279895,12.0304244 0,14.3666239 0,17 C0,21.418278 12.7598846,25 28.5,25 L28.5,25 C44.2401154,25 57,21.418278 57,17 C57,14.3940865 52.5612504,12.0791838 45.6902751,10.6185264" id="路径" stroke-width="4"></path>
                </g>
            </g>
        </g>
    </g>
</svg>